<?xml version="1.0" encoding="UTF-8"?>
<!DOCTYPE svg PUBLIC "-//W3C//DTD SVG 1.1//EN" "http://www.w3.org/Graphics/SVG/1.1/DTD/svg11.dtd">
<!-- Creator: CorelDRAW -->
<svg xmlns="http://www.w3.org/2000/svg" xml:space="preserve" width="1499px" height="1033px" style="shape-rendering:geometricPrecision; text-rendering:geometricPrecision; image-rendering:optimizeQuality; fill-rule:evenodd; clip-rule:evenodd"
viewBox="0 0 1457.87 1004.41"
 xmlns:xlink="http://www.w3.org/1999/xlink">
 <defs>
  <style type="text/css">
   <![CDATA[
    .str1 {stroke:#3D3769;stroke-width:4.05048}
    .str0 {stroke:#C8BE92;stroke-width:4.05048}
    .str2 {stroke:#3D3769;stroke-width:6.07629}
    .fil3 {fill:none}
    .fil4 {fill:#3D3769}
    .fil2 {fill:white}
    .fil1 {fill:#33006F}
    .fil0 {fill:#E8D3A2}
   ]]>
  </style>
 </defs>
 <g id="Capa_x0020_1">
  <metadata id="CorelCorpID_0Corel-Layer"/>
  <polygon class="fil0 str0" points="2.02352,2.02122 566.639,2.82741 566.639,242.046 453.071,241.239 530.392,548.111 676.986,3.63475 902.51,3.63475 1037.82,551.334 1122.39,243.657 1017.69,243.657 1015.27,2.82741 1455.04,2.02122 1455.85,241.239 1340.67,242.046 1139.31,1002.38 819.55,1002.38 726.92,637.516 630.27,1002.38 307.286,1001.58 118.813,243.657 2.82971,242.851 "/>
  <path class="fil1 str1" d="M405.561 205.648l120.233 486.128 178.523 -654.273 167.48 -0.535164 163.486 653.081 131.478 -485.267 -116.776 0 0 -166.946 366.747 -0.571913 0.0149295 168.384 -107.259 -0.865908 -200.405 762.049 -263.513 -0.569616 -120.513 -473.436 -126.305 474.297c0,0 -267.582,1.4562 -262.391,-0.274472 5.18971,-1.73182 -192.032,-762.066 -192.032,-762.066l-108.99 0.865908 0 -167.812 493.116 -0.868205 -2.66089 166.945 -120.233 1.73526z"/>
 </g>
</svg>
